# xmcd CD database file
#
# Track frame offsets:
#	182
#	16897
#	25697
#	48000
#	64605
#	78457
#	93845
#	111142
#	125507
#	139720
#	154852
#	172120
#	193902
#	206397
#	224832
#	244112
#	261355
#	271350
#	283510
#	300612
#
# Disc length: 4194 seconds
#
# Revision: 6
# Processed by: cddbd v1.5.2PL0 Copyright (c) Steve Scherf et al.
# Submitted via: CDex 1.70beta2
#
DISCID=1e106014
DTITLE=Tony Joe White - Tony Joe White The Best Of
DYEAR=1993
DGENRE=Country
TTITLE0=Polk Salad Annie
TTITLE1=Soul Francisco
TTITLE2=Willie And Laura Mae Jones
TTITLE3=Rainy Night In Georgia
TTITLE4=Roosevelt And Ira Lee (Night Of The Mossacin)
TTITLE5=Stockholm Blues
TTITLE6=High Sheriff Of Calhoun Parrish
TTITLE7=Old Man Willis
TTITLE8=The Train I'm On
TTITLE9=If I Ever Saw A Good Thing
TTITLE10=As The Crow Flies
TTITLE11=Even Trolls Love Rock And Roll
TTITLE12=Backwoods Preacher Man
TTITLE13=Takin' The Midnight Train
TTITLE14=Did Somebody Make A Fool Out Of You
TTITLE15=They Caught The Devil And Put Him In Jail In Eudora, Arkansas
TTITLE16=Saturday Night In Oak Grove, Louisiana
TTITLE17=I've Got A Thing About You Baby
TTITLE18=For Ol' Times Sake
TTITLE19=Ol' Mother Earth
EXTD=YEAR: 1993
EXTT0=
EXTT1=
EXTT2=
EXTT3=
EXTT4=
EXTT5=
EXTT6=
EXTT7=
EXTT8=
EXTT9=
EXTT10=
EXTT11=
EXTT12=
EXTT13=
EXTT14=
EXTT15=
EXTT16=
EXTT17=
EXTT18=
EXTT19=
PLAYORDER=
